Normalized EMG Linear Envelopes
nRows=117
nColumns=4

endheader
time	 med_gas_r	  soleus_r	 tib_ant_r	
3.75	  0.008286	  0.007057	  0.001713	
3.8125	  0.009001	  0.006634	  0.001687	
3.875	  0.009288	  0.006362	  0.001707	
3.9375	  0.009090	  0.006196	  0.001759	
4	  0.008897	  0.006138	  0.001819	
4.0625	  0.008808	  0.006242	  0.001843	
4.125	  0.008825	  0.006463	  0.001847	
4.1875	  0.009051	  0.006690	  0.001841	
4.25	  0.009296	  0.006975	  0.001833	
4.3125	  0.009037	  0.007448	  0.001849	
4.375	  0.008455	  0.008019	  0.001877	
4.4375	  0.008053	  0.008450	  0.001890	
4.5	  0.007890	  0.008345	  0.001853	
4.5625	  0.007659	  0.006848	  0.001692	
4.625	  0.007342	  0.002863	  0.001352	
4.6875	  0.006461	 -0.004709	  0.000778	
4.75	  0.004144	 -0.015379	  0.000096	
4.8125	  0.000361	 -0.024177	 -0.000157	
4.875	 -0.003452	 -0.018201	  0.001151	
4.9375	 -0.003208	  0.025912	  0.005765	
5	  0.008753	  0.138177	  0.015510	
5.0625	  0.043126	  0.337232	  0.030628	
5.125	  0.109085	  0.591769	  0.046548	
5.1875	  0.210184	  0.811294	  0.055838	
5.25	  0.352023	  0.948080	  0.058644	
5.3125	  0.522718	  0.999207	  0.057917	
5.375	  0.677303	  0.972412	  0.055310	
5.4375	  0.767796	  0.887078	  0.050774	
5.5	  0.773814	  0.794998	  0.045489	
5.5625	  0.734485	  0.707734	  0.041526	
5.625	  0.714823	  0.618243	  0.040772	
5.6875	  0.735020	  0.558087	  0.043700	
5.75	  0.795192	  0.529370	  0.048134	
5.8125	  0.859579	  0.502566	  0.051383	
5.875	  0.890831	  0.478498	  0.055502	
5.9375	  0.892965	  0.482604	  0.061515	
6	  0.865654	  0.511234	  0.066532	
6.0625	  0.820179	  0.556464	  0.070888	
6.125	  0.776176	  0.615333	  0.075240	
6.1875	  0.748987	  0.673806	  0.079074	
6.25	  0.737015	  0.701105	  0.081690	
6.3125	  0.727640	  0.682071	  0.081956	
6.375	  0.714933	  0.643956	  0.079490	
6.4375	  0.700344	  0.616231	  0.075732	
6.5	  0.683643	  0.613857	  0.072216	
6.5625	  0.681137	  0.622677	  0.068336	
6.625	  0.696787	  0.614385	  0.065553	
6.6875	  0.724481	  0.585668	  0.063408	
6.75	  0.748203	  0.573820	  0.062293	
6.8125	  0.769100	  0.578561	  0.062633	
6.875	  0.788616	  0.570302	  0.062802	
6.9375	  0.794662	  0.559500	  0.061197	
7	  0.781088	  0.551911	  0.057283	
7.0625	  0.754739	  0.546580	  0.053957	
7.125	  0.732735	  0.527621	  0.053258	
7.1875	  0.729867	  0.526590	  0.054897	
7.25	  0.740218	  0.536913	  0.057718	
7.3125	  0.748844	  0.521758	  0.059540	
7.375	  0.738742	  0.512539	  0.059317	
7.4375	  0.722535	  0.537342	  0.059007	
7.5	  0.719316	  0.566005	  0.059490	
7.5625	  0.726149	  0.584283	  0.061335	
7.625	  0.704743	  0.587714	  0.062920	
7.6875	  0.657264	  0.560422	  0.064744	
7.75	  0.624188	  0.526737	  0.068197	
7.8125	  0.623123	  0.513969	  0.073700	
7.875	  0.636419	  0.511207	  0.078312	
7.9375	  0.648122	  0.490502	  0.079240	
8	  0.672162	  0.464941	  0.077131	
8.0625	  0.705499	  0.451360	  0.074296	
8.125	  0.734021	  0.439858	  0.071526	
8.1875	  0.738310	  0.441382	  0.069248	
8.25	  0.710296	  0.467124	  0.067474	
8.3125	  0.682796	  0.506878	  0.065143	
8.375	  0.681966	  0.549935	  0.062569	
8.4375	  0.702876	  0.564781	  0.060636	
8.5	  0.738023	  0.525544	  0.059774	
8.5625	  0.781859	  0.465365	  0.059807	
8.625	  0.816309	  0.425479	  0.059904	
8.6875	  0.826832	  0.414542	  0.059452	
8.75	  0.806843	  0.423893	  0.059611	
8.8125	  0.781942	  0.456990	  0.061271	
8.875	  0.762230	  0.486407	  0.062608	
8.9375	  0.748593	  0.493843	  0.062620	
9	  0.732641	  0.486173	  0.060586	
9.0625	  0.707978	  0.470480	  0.058295	
9.125	  0.693844	  0.462917	  0.057789	
9.1875	  0.696733	  0.463874	  0.058053	
9.25	  0.697873	  0.478434	  0.057686	
9.3125	  0.691118	  0.507538	  0.057401	
9.375	  0.675939	  0.544167	  0.056438	
9.4375	  0.656827	  0.561287	  0.054696	
9.5	  0.651865	  0.541561	  0.053244	
9.5625	  0.657213	  0.506736	  0.053444	
9.625	  0.659904	  0.481752	  0.056187	
9.6875	  0.658356	  0.465692	  0.058635	
9.75	  0.656170	  0.458050	  0.059499	
9.8125	  0.662433	  0.465194	  0.060045	
9.875	  0.660391	  0.474712	  0.059493	
9.9375	  0.640843	  0.469499	  0.056837	
10	  0.592765	  0.422337	  0.051487	
10.0625	  0.519393	  0.338461	  0.044136	
10.125	  0.427243	  0.250046	  0.036045	
10.1875	  0.341725	  0.176863	  0.028479	
10.25	  0.273396	  0.130922	  0.022268	
10.3125	  0.211671	  0.096370	  0.017152	
10.375	  0.149333	  0.066755	  0.013005	
10.4375	  0.089575	  0.043445	  0.009907	
10.5	  0.044719	  0.030258	  0.007591	
10.5625	  0.018870	  0.025584	  0.005960	
10.625	  0.007880	  0.022269	  0.005035	
10.6875	  0.005066	  0.018131	  0.004545	
10.75	  0.005380	  0.016320	  0.004098	
10.8125	  0.006328	  0.017393	  0.003686	
10.875	  0.007081	  0.018815	  0.003448	
10.9375	  0.007426	  0.016530	  0.003430	
11	  0.007449	  0.012405	  0.003616	
